<svg width="51" height="44" viewBox="0 0 51 44" fill="none" xmlns="http://www.w3.org/2000/svg">
<path d="M10.7157 22.7938L6.73376 27.5191M9.89041 19.5546L6.66998 20.363M9.60965 16.2719L2.3435 14.6495M10.418 12.902L8.05265 10.8877M13.3756 11.2363L10.7583 4.061M16.2675 10.7817L17.0758 7.41185M19.6751 12.1618L24.1548 6.84576M21.0449 15.3574L24.2654 14.549M22.4148 18.5531L28.545 19.7154" stroke="black" stroke-linecap="round"/>
<path d="M20.3656 31.2231L23.914 40.9654C23.9161 40.9711 23.9245 40.9696 23.9245 40.9635" stroke="black" stroke-width="2" stroke-linecap="round"/>
<path d="M13.7376 15.1284L13.8613 15.0151C14.4438 14.482 15.2386 14.2455 16.0177 14.3736C16.9508 14.527 17.7248 15.1795 18.0337 16.0732L21.7935 26.9478C22.1024 27.8415 21.8967 28.8327 21.2576 29.5296C20.724 30.1116 19.9529 30.4165 19.1655 30.3569L18.9982 30.3443C17.8369 30.2564 16.8388 29.487 16.4582 28.3863L12.9493 18.237C12.5687 17.1363 12.8785 15.9147 13.7376 15.1284Z" fill="#FFCD69" stroke="black" stroke-width="2" stroke-linecap="round"/>
<path d="M36.4752 10.8207L36.6414 10.7982C37.4239 10.6924 38.2117 10.9515 38.7786 11.501C39.4576 12.1592 39.7212 13.1365 39.4654 14.0468L36.3517 25.1238C36.0959 26.0341 35.3616 26.731 34.4392 26.939C33.6689 27.1127 32.8616 26.9234 32.2488 26.4255L32.1186 26.3197C31.2148 25.5852 30.8337 24.384 31.1488 23.2628L34.0548 12.9246C34.3699 11.8034 35.321 10.9767 36.4752 10.8207Z" fill="#FFCD69" stroke="black" stroke-width="2" stroke-linecap="round"/>
<path d="M33.0492 27.717L30.4 37.773L30.3363 37.9635" stroke="black" stroke-width="2" stroke-linecap="round"/>
<path d="M31.4388 11.4073L28.3375 10.3075M33.0732 8.91601L27.9973 3.70367M35.7228 7.46715L34.7774 3.89028M38.3305 7.53892L40.612 0.500032M40.8964 9.13133L43.5739 6.66871M42.3913 11.7088L49.7487 9.88225M42.3076 14.7501L45.4089 15.85M41.1947 17.2558L45.7631 21.9469" stroke="black" stroke-linecap="round"/>
</svg>
